<svg width="24" height="24" viewBox="0 0 24 24" fill="currentColor" xmlns="http://www.w3.org/2000/svg">
    <path
        d="M21.6213 20.1213C21.0587 20.6839 20.2956 21 19.5 21H4.5C3.70435 21 2.94129 20.6839 2.37868 20.1213C1.81607 19.5587 1.5 18.7956 1.5 18V13.5V6.5C1.5 5.70435 1.81607 4.44129 2.37868 3.87868C2.94129 3.31607 3.70435 3 4.5 3H9.879C10.4754 3.00026 11.0473 3.23729 11.469 3.659L13.591 5.78C13.731 5.921 13.922 6 14.121 6H19.5C20.2956 6 21.0587 6.31607 21.6213 6.87868C22.1839 7.44129 22.5 8.20435 22.5 9V13.5V18C22.5 18.7956 22.1839 19.5587 21.6213 20.1213Z" />
</svg>