<svg width="24" height="24" viewBox="0 0 24 24" fill="none" xmlns="http://www.w3.org/2000/svg">
  <path
    d="M15.0501 3.68078L15.2187 2.5L15.3874 3.68078C15.4611 4.19641 15.8662 4.60154 16.3818 4.6752L17.5625 4.84388L16.3818 5.01256C15.8662 5.08623 15.4611 5.49136 15.3874 6.00699L15.2187 7.18776L15.0501 6.00699C14.9764 5.49136 14.5713 5.08623 14.0557 5.01256L12.875 4.84388L14.0557 4.6752C14.5713 4.60154 14.9764 4.19641 15.0501 3.68078Z"
    fill="currentColor" stroke="currentColor" stroke-width="1.5" stroke-linecap="round" stroke-linejoin="round" />
  <path
    d="M19.7376 9.54043L19.9062 8.3597L20.0749 9.54043C20.1486 10.0561 20.5537 10.4612 21.0693 10.5349L22.25 10.7036L21.0693 10.8722C20.5537 10.9459 20.1486 11.3511 20.0749 11.8667L19.9062 13.0475L19.7376 11.8667C19.6639 11.3511 19.2588 10.9459 18.7432 10.8722L17.5625 10.7036L18.7432 10.5349C19.2588 10.4612 19.6639 10.0561 19.7376 9.54043Z"
    fill="currentColor" stroke="currentColor" stroke-width="1.5" stroke-linecap="round" stroke-linejoin="round" />
  <path fill-rule="evenodd" clip-rule="evenodd"
    d="M9.4689 4.19506C9.56234 4.28846 9.62591 4.40753 9.65155 4.53714C9.67719 4.66675 9.66373 4.80106 9.61289 4.923C9.20654 5.89823 8.99807 6.9445 8.9996 8.001C8.9996 10.1226 9.8424 12.1573 11.3426 13.6575C12.8428 15.1576 14.8775 16.0004 16.9991 16.0004C18.0556 16.002 19.1018 15.7935 20.0771 15.3871C20.1989 15.3364 20.3331 15.323 20.4626 15.3486C20.5921 15.3741 20.7111 15.4376 20.8045 15.5309C20.8979 15.6242 20.9615 15.7431 20.9872 15.8726C21.0129 16.0021 20.9997 16.1363 20.949 16.2582C20.2398 17.9587 19.0431 19.4114 17.5099 20.4331C15.9766 21.4549 14.1752 22.0001 12.3327 22C7.17839 22 3 17.8225 3 12.6673C3 8.78495 5.37051 5.45719 8.74184 4.05107C8.86367 4.00042 8.9978 3.98707 9.12723 4.0127C9.25665 4.03833 9.37557 4.1018 9.4689 4.19506Z"
    fill="currentColor" />
</svg>