<svg width="24" height="24" viewBox="0 0 24 24" fill="none" xmlns="http://www.w3.org/2000/svg">
    <path
        d="M10.94 4.19L13.06 6.31C13.341 6.59138 13.7233 6.74965 14.121 6.75H19.5C20.0967 6.75 20.669 6.98705 21.091 7.40901C21.5129 7.83097 21.75 8.40326 21.75 9V18C21.75 18.5967 21.5129 19.169 21.091 19.591C20.669 20.0129 20.0967 20.25 19.5 20.25H4.5C3.90326 20.25 3.33097 20.0129 2.90901 19.591C2.48705 19.169 2.25 18.5967 2.25 18V12V6C2.25 5.40326 2.48705 4.83097 2.90901 4.40901C3.33097 3.98705 3.90326 3.75 4.5 3.75H9.879C10.0761 3.75004 10.2712 3.78892 10.4533 3.86442C10.6353 3.93992 10.8007 4.05055 10.94 4.19Z"
        stroke="currentColor" stroke-width="1.5" stroke-linecap="round" stroke-linejoin="round" />
</svg>