<svg width="24" height="24" viewBox="0 0 24 24" fill="none" xmlns="http://www.w3.org/2000/svg">
  <path
    d="M8.20195 4.7999C7.66024 4.80493 7.21705 4.81464 6.83789 4.84561C6.37478 4.88345 6.04685 4.94719 5.78672 5.04014L5.54648 5.14327C5.01917 5.41195 4.57798 5.82042 4.27031 6.32218L4.14726 6.54248C3.99616 6.83906 3.90007 7.21625 3.84961 7.83389C3.7984 8.46078 3.79805 9.26262 3.79805 10.3956V13.5925C3.79805 14.7254 3.7984 15.5273 3.84961 16.1542C3.90007 16.7719 3.99616 17.1491 4.14726 17.4456L4.27031 17.6659C4.57798 18.1676 5.01919 18.5761 5.54648 18.8448L5.78672 18.948C6.04685 19.0409 6.37481 19.1046 6.83789 19.1425C7.21678 19.1735 7.6596 19.1832 8.20078 19.1882L8.20195 4.7999ZM21.798 13.5925C21.798 14.6992 21.7984 15.5773 21.7406 16.2842C21.6894 16.9109 21.5899 17.4566 21.375 17.9578L21.2754 18.1698C20.8728 18.96 20.2601 19.6213 19.5082 20.0824L19.1777 20.2675C18.6188 20.5522 18.0083 20.6742 17.2922 20.7328C16.5852 20.7905 15.7072 20.7901 14.6004 20.7901H9.39961C8.29285 20.7901 7.41478 20.7905 6.70781 20.7328C6.08108 20.6815 5.53553 20.581 5.03437 20.3659L4.82226 20.2675C4.03217 19.8649 3.37078 19.2521 2.90976 18.5003L2.72461 18.1698C2.43994 17.611 2.3179 17.0004 2.25937 16.2842C2.20162 15.5773 2.20195 14.6992 2.20195 13.5925V10.3956C2.20195 9.28886 2.20162 8.41078 2.25937 7.70382C2.31788 6.98771 2.43995 6.37718 2.72461 5.81827L2.90976 5.4878C3.37078 4.73599 4.03214 4.1232 4.82226 3.72061L5.03437 3.621C5.53542 3.40612 6.08125 3.30658 6.70781 3.25537C7.41478 3.19762 8.29285 3.19795 9.39961 3.19795H14.6004C15.7072 3.19795 16.5852 3.19762 17.2922 3.25537C18.0083 3.31388 18.6188 3.43595 19.1777 3.72061L19.5082 3.90577C20.26 4.36678 20.8728 5.02814 21.2754 5.81827L21.375 6.03037C21.5899 6.53142 21.6894 7.07725 21.7406 7.70382C21.7984 8.41078 21.798 9.28886 21.798 10.3956V13.5925ZM9.79687 19.194H14.6004C15.7334 19.194 16.5353 19.1936 17.1622 19.1425C17.7797 19.092 18.157 18.9959 18.4535 18.8448L18.6738 18.7218C19.1756 18.4141 19.584 17.9729 19.8527 17.4456L19.9559 17.2054C20.0489 16.9452 20.1126 16.6174 20.1504 16.1542C20.2016 15.5273 20.202 14.7254 20.202 13.5925V10.3956C20.202 9.26262 20.2016 8.46078 20.1504 7.83389C20.1126 7.37078 20.0488 7.04285 19.9559 6.78272L19.8527 6.54248C19.584 6.01517 19.1755 5.57398 18.6738 5.26632L18.4535 5.14327C18.157 4.99216 17.7798 4.89607 17.1622 4.84561C16.5353 4.7944 15.7334 4.79405 14.6004 4.79405H9.79687L9.79805 4.7999L9.79687 19.194Z"
    fill="black" />
</svg>
